STARTFONT 2.1
FONT "battery"
SIZE 16 75 75
FONTBOUNDINGBOX 16 16 0 0
STARTPROPERTIES 3
COPYRIGHT "unknown"
FONT_ASCENT 0
FONT_DESCENT 0
ENDPROPERTIES
STARTCHAR battery-bar-full.png
ENCODING 10
DWIDTH 24 0
BBX 24 24 0 0
BITMAP
000000
000000
000000
000000
000000
000000
3ffff0
7ffff8
7ffff8
6db6d8
6db6df
6db6df
6db6df
6db6df
6db6d8
7ffff8
7ffff8
3ffff0
000000
000000
000000
000000
000000
000000
ENDCHAR
STARTCHAR battery-bar.png
ENCODING 11
DWIDTH 24 0
BBX 24 24 0 0
BITMAP
000000
000000
000000
000000
000000
000000
000000
3ffff0
200018
248008
248008
24800a
24800a
248008
248008
200018
3ffff0
000000
000000
000000
000000
000000
000000
000000
ENDCHAR
STARTCHAR battery-bar0.png
ENCODING 12
DWIDTH 24 0
BBX 24 24 0 0
BITMAP
000000
000000
000000
000000
000000
000000
7ffff8
7ffff8
600018
600018
60001e
60001e
60001e
60001e
600018
600018
7ffff8
7ffff8
000000
000000
000000
000000
000000
000000
ENDCHAR
STARTCHAR battery-bar1.png
ENCODING 13
DWIDTH 24 0
BBX 24 24 0 0
BITMAP
000000
000000
000000
000000
000000
000000
7ffff8
7ffff8
600018
6c0018
6c001e
6c001e
6c001e
6c001e
6c0018
600018
7ffff8
7ffff8
000000
000000
000000
000000
000000
000000
ENDCHAR
STARTCHAR battery-bar2.png
ENCODING 14
DWIDTH 24 0
BBX 24 24 0 0
BITMAP
000000
000000
000000
000000
000000
000000
7ffff8
7ffff8
600018
6d8018
6d801e
6d801e
6d801e
6d801e
6d8018
600018
7ffff8
7ffff8
000000
000000
000000
000000
000000
000000
ENDCHAR
STARTCHAR battery-bar3.png
ENCODING 15
DWIDTH 24 0
BBX 24 24 0 0
BITMAP
000000
000000
000000
000000
000000
000000
7ffff8
7ffff8
600018
6db018
6db01e
6db01e
6db01e
6db01e
6db018
600018
7ffff8
7ffff8
000000
000000
000000
000000
000000
000000
ENDCHAR
STARTCHAR battery-bar4.png
ENCODING 16
DWIDTH 24 0
BBX 24 24 0 0
BITMAP
000000
000000
000000
000000
000000
000000
7ffff8
7ffff8
600018
6db618
6db61e
6db61e
6db61e
6db61e
6db618
600018
7ffff8
7ffff8
000000
000000
000000
000000
000000
000000
ENDCHAR
STARTCHAR battery-bar5.png
ENCODING 17
DWIDTH 24 0
BBX 24 24 0 0
BITMAP
000000
000000
000000
000000
000000
000000
7ffff8
7ffff8
600018
6db6d8
6db6de
6db6de
6db6de
6db6de
6db6d8
600018
7ffff8
7ffff8
000000
000000
000000
000000
000000
000000
ENDCHAR
STARTCHAR battery0.png
ENCODING 18
DWIDTH 24 0
BBX 24 24 0 0
BITMAP
000000
000000
000000
000000
fffff8
fffffc
fffffc
c0003c
c0001f
c0001f
c0001f
c0003b
c0003b
c1f13f
c0601f
c0001f
c00018
fffff8
fffffc
fffff8
000000
000000
000000
c00000
ENDCHAR
STARTCHAR battery1.png
ENCODING 19
DWIDTH 24 0
BBX 24 24 0 0
BITMAP
ffffff
ffffff
ffffff
ffffff
ffffff
ffffff
ffffff
ffffff
ffffff
ffffff
ffffff
ffffff
ffffff
ffffff
ffffff
ffffff
ffffff
ffffff
ffffff
ffffff
ffffff
ffffff
ffffff
ffffff
ENDCHAR
STARTCHAR battery2.png
ENCODING 20
DWIDTH 24 0
BBX 24 24 0 0
BITMAP
ffffff
ffffff
ffffff
ffffff
ffffff
ffffff
ffffff
ffffff
ffffff
ffffff
ffffff
ffffff
ffffff
ffffff
ffffff
ffffff
ffffff
ffffff
ffffff
ffffff
ffffff
ffffff
ffffff
ffffff
ENDCHAR
STARTCHAR battery3.png
ENCODING 21
DWIDTH 24 0
BBX 24 24 0 0
BITMAP
000000
000000
000000
000000
000000
fffff8
fffff8
800008
8cd808
8cd80f
8cd80b
8cd809
8cd809
8cd80b
8cd80f
8cd808
800008
fffff8
fffff8
000000
000000
000000
000000
000000
ENDCHAR
STARTCHAR battery4.png
ENCODING 22
DWIDTH 24 0
BBX 24 24 0 0
BITMAP
ffffff
ffffff
ffffff
ffffff
ffffff
ffffff
ffffff
ffffff
ffffff
ffffff
ffffff
ffffff
ffffff
ffffff
ffffff
ffffff
ffffff
ffffff
ffffff
ffffff
ffffff
ffffff
ffffff
ffffff
ENDCHAR
STARTCHAR empty-battery24x.png
ENCODING 23
DWIDTH 24 0
BBX 24 24 0 0
BITMAP
ffffff
ffffff
ffffff
ffffff
ffffff
3ffffb
fffffd
bffffb
bffffb
bffffa
bffffb
bffffb
bffffb
bffffb
bffffa
bffffb
bffffb
fffffd
3ffffb
ffffff
ffffff
ffffff
ffffff
ffffff
ENDCHAR
STARTCHAR full-battery24.png
ENCODING 24
DWIDTH 24 0
BBX 24 24 0 0
BITMAP
ffffff
ffffff
ffffff
ffffff
ffffff
3ffffb
fffffd
800003
bffffb
bffffa
bffffb
bffffb
bffffb
bffffb
bffffa
bffffb
800003
fffffd
3ffffb
ffffff
ffffff
ffffff
ffffff
ffffff
ENDCHAR
STARTCHAR thermometer.png
ENCODING 25
DWIDTH 16 0
BBX 16 16 0 0
BITMAP
0000
0180
0200
02c0
0240
0240
02c0
03c0
03c0
03c0
03c0
07e0
07e0
03c0
0180
0000
ENDCHAR
