STARTFONT 2.1
FONT "menuicon"
SIZE 16 75 75
FONTBOUNDINGBOX 16 16 0 0
STARTPROPERTIES 3
COPYRIGHT "unknown"
FONT_ASCENT 0
FONT_DESCENT 0
ENDPROPERTIES
STARTCHAR .\settings64.png
ENCODING 10
DWIDTH 64 0
BBX 64 64 0 0
BITMAP
00000007e0000000
0000001ff8000000
0000003ffc000000
0000003ffc000000
0000007ffe000000
0000007e7e000000
0000007c3e000000
000000f83e000000
000000f81f000000
000001f81f800000
000007f81fe00000
00001ff00ff80000
00783fe007fc1e00
03feffc003ff7fc0
07ffff0000ffffe0
0ffffc00003ffff0
0ffff800001ffff0
1fcfe0000007f3f8
1f010000000180f8
1f00000ff00000f8
1f00003ffc0000f8
1f8000ffff0001f8
0fc001ffff8003f0
0fe003ffffc007f0
07f007f81fe00fe0
03f807e007e01fc0
01f80fc003f01f80
00f80f8001f01f00
00f81f8001f81f00
00f81f0000f81f00
00f81f0000f81f00
00f81f0000f81f00
00f81f0000f81f00
00f81f0000f81f00
00f81f0000f81f00
00f81f8001f81f00
00f80f8001f01f00
01f80fc003f01f80
03f007e007e01fc0
07f007f81fe00fe0
0fe003ffffc007f0
0fc001ffff8003f0
1f8000ffff0001f8
1f00003ffc0000f8
1f00000ff00000f8
1f8380000001e1f8
0fffe000000ffff0
0ffff800001ffff0
07fffc00003fffe0
03ffff0001ffffc0
01fcffc003fe3f80
00003fe00ffc0000
00001ff00ff80000
000007f81fe00000
000001f81f800000
000000f81f000000
000000fc3e000000
0000007c3e000000
0000007e7e000000
0000007ffe000000
0000003ffc000000
0000003ffc000000
0000000ff0000000
00000007e0000000
ENDCHAR
STARTCHAR .\return64.png
ENCODING 11
DWIDTH 64 0
BBX 64 64 0 0
BITMAP
0000000000000000
0000000000000000
0000000000000000
0000000000000000
0000000000000000
0000000000000000
0000000000000000
0000000000000000
0001000000000000
0007c00000000000
000fe00000000000
000fe00000000000
001fe00000000000
003fc00000000000
007f800000000000
00ff800000000000
00ff000000000000
01fffffffff80000
03fffffffffe0000
03ffffffffff8000
03ffffffffffe000
01fffffffffff000
01fffffffffff800
00ff0000000ffc00
007f80000003fe00
003fc0000001fe00
001fc0000000ff00
001fe00000007f00
000fe00000003f80
0007c00000001f80
0003800000001fc0
0000000000000fc0
0000000000000fc0
0000000000000fc0
0000000000000fc0
0000000000000fc0
0000000000000fc0
0000000000000fc0
0000000000000fc0
0000000000000fc0
0000000000000fc0
0000000000001fc0
0000000000001f80
0000000000003f80
0000000000007f80
0000000000007f00
000000000001fe00
000000000003fe00
00000000000ffc00
0000000000fff800
00000003fffff000
00000003ffffe000
00000003ffff8000
00000003ffff0000
00000003fff80000
00000000ff800000
0000000000000000
0000000000000000
0000000000000000
0000000000000000
0000000000000000
0000000000000000
0000000000000000
0000000000000000
ENDCHAR
