STARTFONT 2.1
FONT "wifiicon"
SIZE 16 75 75
FONTBOUNDINGBOX 16 16 0 0
STARTPROPERTIES 3
COPYRIGHT "unknown"
FONT_ASCENT 0
FONT_DESCENT 0
ENDPROPERTIES
STARTCHAR .\wifi1_24x.png
ENCODING 10
DWIDTH 24 0
BBX 24 24 0 0
BITMAP
000000
000000
007e00
03ffc0
0f00f0
3c003c
70000e
e00007
c0ff03
03ffc0
0700e0
0c0030
080010
003c00
00ff00
01c380
000000
000000
000000
001800
001800
001800
000000
000000
ENDCHAR
