STARTFONT 2.1
FONT "wifiicon"
SIZE 16 75 75
FONTBOUNDINGBOX 16 16 0 0
STARTPROPERTIES 3
COPYRIGHT "unknown"
FONT_ASCENT 0
FONT_DESCENT 0
ENDPROPERTIES
STARTCHAR .\wifi1_64x.png
ENCODING 10
DWIDTH 64 0
BBX 64 64 0 0
BITMAP
0000000000000000
0000000000000000
0000000000000000
0000000000000000
0000000000000000
0000000000000000
000000ffff000000
00000ffffff00000
00007ffffffe0000
0003ffffffffc000
0007ffffffffe000
001fff0000fff800
007ff800001ffe00
01ffc0000003ff80
03ff00000000ffc0
07fc000000003fe0
0ff0000000000ff0
1fc00000000003f8
3f800000000001fc
7f000000000000fe
fe000007e000007f
fc0000ffff00003f
780007ffffe0001e
00001ffffff80000
00007ffffffe0000
0001fff81fff8000
0003ff0000ffc000
000ffc00003ff000
001ff000000ff800
003fc0000003fc00
003f80000001fc00
007e000000007e00
003c000000003c00
0018000000001800
0000000000000000
0000000ff0000000
0000007ffe000000
000001ffff800000
000003ffffc00000
00000fffffe00000
00001ff81ff00000
00001fc003f80000
00001f8001f80000
00000e0000700000
0000000000000000
0000000000000000
0000000000000000
0000000000000000
0000000000000000
0000000000000000
00000003c0000000
00000007e0000000
0000000ff0000000
0000000ff0000000
0000000ff0000000
0000000ff0000000
00000007e0000000
00000003c0000000
0000000000000000
0000000000000000
0000000000000000
0000000000000000
0000000000000000
0000000000000000
ENDCHAR
